<svg xmlns="http://www.w3.org/2000/svg" viewBox="0 0 48 48"><defs><style>.cls-1{fill:#2d80a6;}.cls-2{fill:#fff;}</style></defs><title>Asset 4</title><g id="Layer_2" data-name="Layer 2"><g id="Layer_1-2" data-name="Layer 1"><circle class="cls-1" cx="24" cy="24" r="24"/><path class="cls-2" d="M33.2,9H14.8A5.8,5.8,0,0,0,9,14.8V33.2A5.8,5.8,0,0,0,14.8,39H33.2A5.8,5.8,0,0,0,39,33.2V14.8A5.8,5.8,0,0,0,33.2,9Zm1.66,3.46h.66v5.08l-5.07,0,0-5.08ZM19.72,20.92a5.27,5.27,0,1,1-1,3.08A5.28,5.28,0,0,1,19.72,20.92ZM36.08,33.2a2.88,2.88,0,0,1-2.88,2.88H14.8a2.88,2.88,0,0,1-2.87-2.87V20.92H16.4a8.2,8.2,0,1,0,15.2,0h4.48Z"/><circle class="cls-1" cx="24" cy="24" r="24"/><path class="cls-2" d="M33.2,9H14.8A5.8,5.8,0,0,0,9,14.8V33.2A5.8,5.8,0,0,0,14.8,39H33.2A5.8,5.8,0,0,0,39,33.2V14.8A5.8,5.8,0,0,0,33.2,9Zm1.66,3.46h.66v5.08l-5.07,0,0-5.08ZM19.72,20.92a5.27,5.27,0,1,1-1,3.08A5.28,5.28,0,0,1,19.72,20.92ZM36.08,33.2a2.88,2.88,0,0,1-2.88,2.88H14.8a2.88,2.88,0,0,1-2.87-2.87V20.92H16.4a8.2,8.2,0,1,0,15.2,0h4.48Z"/><circle class="cls-1" cx="24" cy="24" r="24"/><path class="cls-2" d="M33.2,9H14.8A5.8,5.8,0,0,0,9,14.8V33.2A5.8,5.8,0,0,0,14.8,39H33.2A5.8,5.8,0,0,0,39,33.2V14.8A5.8,5.8,0,0,0,33.2,9Zm1.66,3.46h.66v5.08l-5.07,0,0-5.08ZM19.72,20.92a5.27,5.27,0,1,1-1,3.08A5.28,5.28,0,0,1,19.72,20.92ZM36.08,33.2a2.88,2.88,0,0,1-2.88,2.88H14.8a2.88,2.88,0,0,1-2.87-2.87V20.92H16.4a8.2,8.2,0,1,0,15.2,0h4.48Z"/></g></g></svg>