<svg xmlns="http://www.w3.org/2000/svg" xmlns:xlink="http://www.w3.org/1999/xlink" viewBox="0 0 284.23 277.38"><defs><style>.cls-1{fill:none;}.cls-2{isolation:isolate;}.cls-3{fill:#fc5454;}.cls-4{fill:#fdf1e7;}.cls-5{fill:#ffd7b7;}.cls-6{fill:#e5e5e5;}.cls-7{fill:url(#linear-gradient);}.cls-8{mix-blend-mode:screen;fill:url(#radial-gradient);}.cls-9{fill:url(#radial-gradient-2);}.cls-10{fill:url(#New_Gradient_Swatch_1);}.cls-11{clip-path:url(#clip-path);}.cls-12,.cls-13,.cls-14,.cls-15,.cls-21,.cls-22,.cls-23,.cls-24,.cls-30,.cls-31,.cls-32,.cls-33,.cls-39,.cls-40,.cls-41,.cls-42,.cls-48,.cls-49,.cls-50,.cls-51{fill:#fff;}.cls-12,.cls-13,.cls-14,.cls-15,.cls-16,.cls-17,.cls-18,.cls-19,.cls-20,.cls-21,.cls-22,.cls-23,.cls-24,.cls-25,.cls-26,.cls-27,.cls-28,.cls-29,.cls-30,.cls-31,.cls-32,.cls-33,.cls-34,.cls-35,.cls-36,.cls-37,.cls-38,.cls-39,.cls-40,.cls-41,.cls-42,.cls-43,.cls-44,.cls-45,.cls-46,.cls-47,.cls-48,.cls-49,.cls-50,.cls-51,.cls-52,.cls-53,.cls-54,.cls-55,.cls-56{stroke-miterlimit:10;stroke-width:3px;}.cls-12{stroke:url(#New_Gradient_Swatch_1-2);}.cls-13{stroke:url(#New_Gradient_Swatch_1-3);}.cls-14{stroke:url(#New_Gradient_Swatch_1-4);}.cls-15{stroke:url(#New_Gradient_Swatch_1-5);}.cls-16,.cls-17,.cls-18,.cls-19,.cls-20,.cls-25,.cls-26,.cls-27,.cls-28,.cls-29,.cls-34,.cls-35,.cls-36,.cls-37,.cls-38,.cls-43,.cls-44,.cls-45,.cls-46,.cls-47,.cls-52,.cls-53,.cls-54,.cls-55,.cls-56{fill:#ff5252;}.cls-16{stroke:url(#New_Gradient_Swatch_1-6);}.cls-17{stroke:url(#New_Gradient_Swatch_1-7);}.cls-18{stroke:url(#New_Gradient_Swatch_1-8);}.cls-19{stroke:url(#New_Gradient_Swatch_1-9);}.cls-20{stroke:url(#New_Gradient_Swatch_1-10);}.cls-21{stroke:url(#New_Gradient_Swatch_1-11);}.cls-22{stroke:url(#New_Gradient_Swatch_1-12);}.cls-23{stroke:url(#New_Gradient_Swatch_1-13);}.cls-24{stroke:url(#New_Gradient_Swatch_1-14);}.cls-25{stroke:url(#New_Gradient_Swatch_1-15);}.cls-26{stroke:url(#New_Gradient_Swatch_1-16);}.cls-27{stroke:url(#New_Gradient_Swatch_1-17);}.cls-28{stroke:url(#New_Gradient_Swatch_1-18);}.cls-29{stroke:url(#New_Gradient_Swatch_1-19);}.cls-30{stroke:url(#New_Gradient_Swatch_1-20);}.cls-31{stroke:url(#New_Gradient_Swatch_1-21);}.cls-32{stroke:url(#New_Gradient_Swatch_1-22);}.cls-33{stroke:url(#New_Gradient_Swatch_1-23);}.cls-34{stroke:url(#New_Gradient_Swatch_1-24);}.cls-35{stroke:url(#New_Gradient_Swatch_1-25);}.cls-36{stroke:url(#New_Gradient_Swatch_1-26);}.cls-37{stroke:url(#New_Gradient_Swatch_1-27);}.cls-38{stroke:url(#New_Gradient_Swatch_1-28);}.cls-39{stroke:url(#New_Gradient_Swatch_1-29);}.cls-40{stroke:url(#New_Gradient_Swatch_1-30);}.cls-41{stroke:url(#New_Gradient_Swatch_1-31);}.cls-42{stroke:url(#New_Gradient_Swatch_1-32);}.cls-43{stroke:url(#New_Gradient_Swatch_1-33);}.cls-44{stroke:url(#New_Gradient_Swatch_1-34);}.cls-45{stroke:url(#New_Gradient_Swatch_1-35);}.cls-46{stroke:url(#New_Gradient_Swatch_1-36);}.cls-47{stroke:url(#New_Gradient_Swatch_1-37);}.cls-48{stroke:url(#New_Gradient_Swatch_1-38);}.cls-49{stroke:url(#New_Gradient_Swatch_1-39);}.cls-50{stroke:url(#New_Gradient_Swatch_1-40);}.cls-51{stroke:url(#New_Gradient_Swatch_1-41);}.cls-52{stroke:url(#New_Gradient_Swatch_1-42);}.cls-53{stroke:url(#New_Gradient_Swatch_1-43);}.cls-54{stroke:url(#New_Gradient_Swatch_1-44);}.cls-55{stroke:url(#New_Gradient_Swatch_1-45);}.cls-56{stroke:url(#New_Gradient_Swatch_1-46);}.cls-57{opacity:0.26;mix-blend-mode:multiply;fill:url(#radial-gradient-3);}.cls-58{fill:#fcdfc8;opacity:0.5;}.cls-59{opacity:0.76;mix-blend-mode:soft-light;fill:url(#radial-gradient-4);}.cls-60{fill:#ffc99e;}</style><linearGradient id="linear-gradient" x1="424.42" y1="237.02" x2="424.42" y2="297.27" gradientUnits="userSpaceOnUse"><stop offset="0" stop-color="#fff"/><stop offset="0.21" stop-color="#fff7f0"/><stop offset="0.6" stop-color="#ffe2ca"/><stop offset="1" stop-color="#ffc99e"/></linearGradient><radialGradient id="radial-gradient" cx="423.85" cy="256.15" r="30.5" gradientTransform="translate(-4.45 18.24) scale(1.01 0.93)" gradientUnits="userSpaceOnUse"><stop offset="0" stop-color="#fff"/><stop offset="0.09" stop-color="#f0f0f0"/><stop offset="0.27" stop-color="#cacaca"/><stop offset="0.52" stop-color="#8b8b8b"/><stop offset="0.82" stop-color="#363636"/><stop offset="1"/></radialGradient><radialGradient id="radial-gradient-2" cx="426.6" cy="368.02" r="76.88" gradientTransform="translate(0 135.58) scale(1 0.63)" xlink:href="#linear-gradient"/><radialGradient id="New_Gradient_Swatch_1" cx="135.65" cy="162.65" r="75.41" gradientUnits="userSpaceOnUse"><stop offset="0" stop-color="#ffbf97"/><stop offset="1" stop-color="#ffc99e"/></radialGradient><clipPath id="clip-path" transform="translate(-284.39 -256.31)"><path class="cls-1" d="M479.29,375.54c0,18.44-26.09,33.4-58.27,33.4s-58.27-15-58.27-33.4,23.48-58.08,55.66-58.08c23.1,0,44.4,20.41,54.59,38.76C477,363.44,479.29,370.33,479.29,375.54Z"/></clipPath><radialGradient id="New_Gradient_Swatch_1-2" cx="442.85" cy="369.98" r="31.5" xlink:href="#New_Gradient_Swatch_1"/><radialGradient id="New_Gradient_Swatch_1-3" cx="442.78" cy="373.21" r="25.01" xlink:href="#New_Gradient_Swatch_1"/><radialGradient id="New_Gradient_Swatch_1-4" cx="442.7" cy="377.04" r="17.35" xlink:href="#New_Gradient_Swatch_1"/><radialGradient id="New_Gradient_Swatch_1-5" cx="442.63" cy="380.14" r="11.15" xlink:href="#New_Gradient_Swatch_1"/><radialGradient id="New_Gradient_Swatch_1-6" cx="181.85" cy="132.92" r="3.83" xlink:href="#New_Gradient_Swatch_1"/><radialGradient id="New_Gradient_Swatch_1-7" cx="134.68" cy="124.03" r="3.83" xlink:href="#New_Gradient_Swatch_1"/><radialGradient id="New_Gradient_Swatch_1-8" cx="143.03" cy="125.6" r="3.23" xlink:href="#New_Gradient_Swatch_1"/><radialGradient id="New_Gradient_Swatch_1-9" cx="173.51" cy="131.35" r="3.23" xlink:href="#New_Gradient_Swatch_1"/><radialGradient id="New_Gradient_Swatch_1-10" cx="158.27" cy="128.47" r="8.72" xlink:href="#New_Gradient_Swatch_1"/><radialGradient id="New_Gradient_Swatch_1-11" cx="409.88" cy="367.46" r="37.53" xlink:href="#New_Gradient_Swatch_1"/><radialGradient id="New_Gradient_Swatch_1-12" cx="409.88" cy="372.4" r="29.71" xlink:href="#New_Gradient_Swatch_1"/><radialGradient id="New_Gradient_Swatch_1-13" cx="409.88" cy="378.25" r="20.46" xlink:href="#New_Gradient_Swatch_1"/><radialGradient id="New_Gradient_Swatch_1-14" cx="409.88" cy="382.99" r="12.97" xlink:href="#New_Gradient_Swatch_1"/><radialGradient id="New_Gradient_Swatch_1-15" cx="155.43" cy="133.98" r="4.27" xlink:href="#New_Gradient_Swatch_1"/><radialGradient id="New_Gradient_Swatch_1-16" cx="95.57" cy="133.98" r="4.27" xlink:href="#New_Gradient_Swatch_1"/><radialGradient id="New_Gradient_Swatch_1-17" cx="106.16" cy="133.98" r="3.52" xlink:href="#New_Gradient_Swatch_1"/><radialGradient id="New_Gradient_Swatch_1-18" cx="144.84" cy="133.98" r="3.52" xlink:href="#New_Gradient_Swatch_1"/><radialGradient id="New_Gradient_Swatch_1-19" cx="125.5" cy="133.98" r="10.38" xlink:href="#New_Gradient_Swatch_1"/><radialGradient id="New_Gradient_Swatch_1-20" cx="407.71" cy="380.3" r="22.32" xlink:href="#New_Gradient_Swatch_1"/><radialGradient id="New_Gradient_Swatch_1-21" cx="407.71" cy="383.16" r="17.8" xlink:href="#New_Gradient_Swatch_1"/><radialGradient id="New_Gradient_Swatch_1-22" cx="407.71" cy="386.54" r="12.45" xlink:href="#New_Gradient_Swatch_1"/><radialGradient id="New_Gradient_Swatch_1-23" cx="407.71" cy="389.29" r="8.12" xlink:href="#New_Gradient_Swatch_1"/><radialGradient id="New_Gradient_Swatch_1-24" cx="140.64" cy="137.2" r="2.62" xlink:href="#New_Gradient_Swatch_1"/><radialGradient id="New_Gradient_Swatch_1-25" cx="106" cy="137.2" r="2.62" xlink:href="#New_Gradient_Swatch_1"/><radialGradient id="New_Gradient_Swatch_1-26" cx="112.13" cy="137.2" r="2.21" xlink:href="#New_Gradient_Swatch_1"/><radialGradient id="New_Gradient_Swatch_1-27" cx="134.51" cy="137.2" r="2.21" xlink:href="#New_Gradient_Swatch_1"/><radialGradient id="New_Gradient_Swatch_1-28" cx="123.32" cy="137.2" r="6.07" xlink:href="#New_Gradient_Swatch_1"/><radialGradient id="New_Gradient_Swatch_1-29" cx="437.62" cy="392.75" r="38.1" xlink:href="#New_Gradient_Swatch_1"/><radialGradient id="New_Gradient_Swatch_1-30" cx="437.77" cy="396.35" r="30.19" xlink:href="#New_Gradient_Swatch_1"/><radialGradient id="New_Gradient_Swatch_1-31" cx="437.95" cy="400.61" r="20.85" xlink:href="#New_Gradient_Swatch_1"/><radialGradient id="New_Gradient_Swatch_1-32" cx="438.1" cy="404.07" r="13.28" xlink:href="#New_Gradient_Swatch_1"/><radialGradient id="New_Gradient_Swatch_1-33" cx="181.86" cy="145.72" r="4.61" xlink:href="#New_Gradient_Swatch_1"/><radialGradient id="New_Gradient_Swatch_1-34" cx="125.69" cy="160.11" r="4.61" xlink:href="#New_Gradient_Swatch_1"/><radialGradient id="New_Gradient_Swatch_1-35" cx="135.62" cy="157.56" r="3.87" xlink:href="#New_Gradient_Swatch_1"/><radialGradient id="New_Gradient_Swatch_1-36" cx="171.92" cy="148.26" r="3.87" xlink:href="#New_Gradient_Swatch_1"/><radialGradient id="New_Gradient_Swatch_1-37" cx="153.77" cy="152.91" r="10.55" xlink:href="#New_Gradient_Swatch_1"/><radialGradient id="New_Gradient_Swatch_1-38" cx="377.38" cy="394.63" r="21.05" xlink:href="#New_Gradient_Swatch_1"/><radialGradient id="New_Gradient_Swatch_1-39" cx="377.27" cy="396.43" r="16.85" xlink:href="#New_Gradient_Swatch_1"/><radialGradient id="New_Gradient_Swatch_1-40" cx="377.14" cy="398.55" r="11.88" xlink:href="#New_Gradient_Swatch_1"/><radialGradient id="New_Gradient_Swatch_1-41" cx="377.03" cy="400.27" r="7.86" xlink:href="#New_Gradient_Swatch_1"/><radialGradient id="New_Gradient_Swatch_1-42" cx="107.33" cy="150.9" r="2.85" xlink:href="#New_Gradient_Swatch_1"/><radialGradient id="New_Gradient_Swatch_1-43" cx="78" cy="141.95" r="2.85" xlink:href="#New_Gradient_Swatch_1"/><radialGradient id="New_Gradient_Swatch_1-44" cx="83.19" cy="143.54" r="2.47" xlink:href="#New_Gradient_Swatch_1"/><radialGradient id="New_Gradient_Swatch_1-45" cx="102.14" cy="149.32" r="2.47" xlink:href="#New_Gradient_Swatch_1"/><radialGradient id="New_Gradient_Swatch_1-46" cx="92.67" cy="146.43" r="5.95" xlink:href="#New_Gradient_Swatch_1"/><radialGradient id="radial-gradient-3" cx="136.38" cy="174.26" r="75.41" gradientUnits="userSpaceOnUse"><stop offset="0" stop-color="gray"/><stop offset="1" stop-color="#fff"/></radialGradient><radialGradient id="radial-gradient-4" cx="419.99" cy="375.69" r="88.45" gradientTransform="translate(-274.08 -104.91) scale(0.98 0.6)" gradientUnits="userSpaceOnUse"><stop offset="0" stop-color="#fff"/><stop offset="0.18" stop-color="#c9c9c9"/><stop offset="0.48" stop-color="#747474"/><stop offset="0.73" stop-color="#353535"/><stop offset="0.91" stop-color="#0f0f0f"/><stop offset="1"/></radialGradient></defs><title>logo_2</title><g class="cls-2"><g id="Layer_9" data-name="Layer 9"><g id="logo"><g id="guy"><ellipse id="body" class="cls-3" cx="140.04" cy="105.49" rx="58.27" ry="50.51"/><circle id="face" class="cls-4" cx="140.04" cy="43.12" r="31.15"/><g id="hands"><ellipse class="cls-4" cx="187.87" cy="106.77" rx="10.44" ry="43.14"/><ellipse class="cls-4" cx="92.21" cy="106.77" rx="10.44" ry="43.14"/></g><g id="chopsticks"><rect class="cls-5" x="371.71" y="304.22" width="1.24" height="29.04" transform="translate(-363.04 -129.5) rotate(-17.51)"/><rect class="cls-5" x="373.17" y="303.3" width="1.24" height="29.04" transform="translate(-308.03 -226.19) rotate(-4.47)"/></g><g id="spoon"><rect class="cls-5" x="472.68" y="311.99" width="2.09" height="16.03" transform="translate(-198.45 -356.35) rotate(13.25)"/><ellipse class="cls-5" cx="475.88" cy="310.85" rx="5.08" ry="3.28" transform="translate(-220.14 446.53) rotate(-76.75)"/></g><g id="fingers"><path class="cls-4" d="M372.33,334.64a4.39,4.39,0,0,0,1.1-.3c1.45-.6,2.32-1.81,2-2.69s-1.69-1.08-3.06-.6" transform="translate(-284.39 -256.31)"/><path class="cls-6" d="M372.33,334.64a4.89,4.89,0,0,0,1.84-.8,2.7,2.7,0,0,0,1.15-1.53,1,1,0,0,0-.19-.87,1.56,1.56,0,0,0-.81-.47,3.91,3.91,0,0,0-2,.08,3.46,3.46,0,0,1,2-.27,1.64,1.64,0,0,1,.94.52,1.27,1.27,0,0,1,.26,1.06,2.8,2.8,0,0,1-1.29,1.64A4.16,4.16,0,0,1,372.33,334.64Z" transform="translate(-284.39 -256.31)"/><path class="cls-4" d="M379.92,328.07a4.39,4.39,0,0,0-1.12-.22c-1.56-.1-2.88.6-2.94,1.56s1,1.72,2.48,1.88" transform="translate(-284.39 -256.31)"/><path class="cls-6" d="M379.92,328.07a4.89,4.89,0,0,0-2-.09,2.7,2.7,0,0,0-1.71.86,1,1,0,0,0-.21.86,1.56,1.56,0,0,0,.52.78,3.91,3.91,0,0,0,1.82.81,3.46,3.46,0,0,1-1.94-.66,1.64,1.64,0,0,1-.62-.88,1.27,1.27,0,0,1,.23-1.07,2.8,2.8,0,0,1,1.88-.9A4.16,4.16,0,0,1,379.92,328.07Z" transform="translate(-284.39 -256.31)"/><path class="cls-4" d="M475.76,325.89a4.39,4.39,0,0,0-1.12-.22c-1.56-.1-2.88.6-2.94,1.56s1,1.72,2.48,1.88" transform="translate(-284.39 -256.31)"/><path class="cls-6" d="M475.76,325.89a4.89,4.89,0,0,0-2-.09,2.7,2.7,0,0,0-1.71.86,1,1,0,0,0-.21.86,1.56,1.56,0,0,0,.52.78,3.91,3.91,0,0,0,1.82.81,3.46,3.46,0,0,1-1.94-.66,1.64,1.64,0,0,1-.62-.88,1.27,1.27,0,0,1,.23-1.07,2.8,2.8,0,0,1,1.88-.9A4.16,4.16,0,0,1,475.76,325.89Z" transform="translate(-284.39 -256.31)"/></g><path id="mouth" class="cls-3" d="M420,311.27a1.26,1.26,0,0,0-1.33,1.43c.73,3.29,3,5.69,5.72,5.69s5-2.4,5.72-5.69a1.26,1.26,0,0,0-1.33-1.43Z" transform="translate(-284.39 -256.31)"/><g id="hat"><path class="cls-7" d="M423.28,256.69a1.9,1.9,0,0,1,2.29,0l23,17.46,19.78,15a1.85,1.85,0,0,1-1.14,3.31H381.64a1.85,1.85,0,0,1-1.14-3.31l19.78-15Z" transform="translate(-284.39 -256.31)"/><path class="cls-8" d="M423.28,256.69a1.9,1.9,0,0,1,2.29,0l23,17.46,19.78,15a1.85,1.85,0,0,1-1.14,3.31H381.64a1.85,1.85,0,0,1-1.14-3.31l19.78-15Z" transform="translate(-284.39 -256.31)"/></g></g><g id="bowl"><g id="bowl-2" data-name="bowl"><path class="cls-9" d="M384.15,418.52c8.76,0,15.48.93,20.55,2.85l.5.19.46.28a9.78,9.78,0,0,1,1.55,1.11,54.53,54.53,0,0,1,9.19-.7c4.64,0,14.55,0,17.43,5.58a19.2,19.2,0,0,1,3.39-3.29l.25-.17a23.94,23.94,0,0,1,9.58-3.5,50.6,50.6,0,0,1,22.83-5.93A33.52,33.52,0,0,1,480,416.43c10.33-15,14.36-32.48,14.36-43.29,0-22.12-31.29-40.06-69.9-40.06s-69.9,17.94-69.9,40.06c0,11.89,4.78,31.82,17.46,47.71C374.82,419.27,378.74,418.52,384.15,418.52Z" transform="translate(-284.39 -256.31)"/></g><g id="noddles"><ellipse class="cls-10" cx="136.63" cy="119.23" rx="58.27" ry="33.4"/><g class="cls-11"><path class="cls-12" d="M448,356.58a28.69,28.69,0,0,1,22.88,33.51l7.8,1.47a36.63,36.63,0,1,0-72-13.57l7.8,1.47A28.69,28.69,0,0,1,448,356.58Z" transform="translate(-284.39 -256.31)"/><path class="cls-13" d="M448,356.58a28.69,28.69,0,0,0-33.51,22.88l9.22,1.74a19.31,19.31,0,1,1,38,7.15l9.22,1.74A28.69,28.69,0,0,0,448,356.58Z" transform="translate(-284.39 -256.31)"/><path class="cls-14" d="M444.82,373.28a11.71,11.71,0,0,1,9.34,13.67l7.47,1.41a19.31,19.31,0,1,0-38-7.15l7.47,1.41A11.71,11.71,0,0,1,444.82,373.28Z" transform="translate(-284.39 -256.31)"/><path class="cls-15" d="M444.82,373.28a11.71,11.71,0,0,0-13.67,9.34l23,4.34A11.71,11.71,0,0,0,444.82,373.28Z" transform="translate(-284.39 -256.31)"/><line class="cls-16" x1="186.46" y1="133.79" x2="177.25" y2="132.05"/><line class="cls-17" x1="139.29" y1="124.89" x2="130.07" y2="123.16"/><line class="cls-18" x1="146.76" y1="126.3" x2="139.29" y2="124.89"/><line class="cls-19" x1="177.25" y1="132.05" x2="169.77" y2="130.64"/><line class="cls-20" x1="169.77" y1="130.64" x2="146.76" y2="126.3"/><path class="cls-21" d="M409.88,354.52a35.77,35.77,0,0,1,35.77,35.77h9.9a45.67,45.67,0,1,0-91.34,0h9.9A35.77,35.77,0,0,1,409.88,354.52Z" transform="translate(-284.39 -256.31)"/><path class="cls-22" d="M409.88,354.52a35.77,35.77,0,0,0-35.77,35.77h11.7a24.08,24.08,0,1,1,48.16,0h11.7A35.77,35.77,0,0,0,409.88,354.52Z" transform="translate(-284.39 -256.31)"/><path class="cls-23" d="M409.88,375.69a14.6,14.6,0,0,1,14.6,14.6H434a24.08,24.08,0,1,0-48.16,0h9.48A14.6,14.6,0,0,1,409.88,375.69Z" transform="translate(-284.39 -256.31)"/><path class="cls-24" d="M409.88,375.69a14.6,14.6,0,0,0-14.6,14.6h29.19A14.6,14.6,0,0,0,409.88,375.69Z" transform="translate(-284.39 -256.31)"/><line class="cls-25" x1="161.27" y1="133.98" x2="149.58" y2="133.98"/><line class="cls-26" x1="101.42" y1="133.98" x2="89.73" y2="133.98"/><line class="cls-27" x1="110.9" y1="133.98" x2="101.42" y2="133.98"/><line class="cls-28" x1="149.58" y1="133.98" x2="140.1" y2="133.98"/><line class="cls-29" x1="140.1" y1="133.98" x2="110.9" y2="133.98"/><path class="cls-30" d="M407.71,372.81a20.7,20.7,0,0,1,20.7,20.7h5.73a26.43,26.43,0,1,0-52.86,0H387A20.7,20.7,0,0,1,407.71,372.81Z" transform="translate(-284.39 -256.31)"/><path class="cls-31" d="M407.71,372.81a20.7,20.7,0,0,0-20.7,20.7h6.77a13.94,13.94,0,1,1,27.87,0h6.77A20.7,20.7,0,0,0,407.71,372.81Z" transform="translate(-284.39 -256.31)"/><path class="cls-32" d="M407.71,385.06a8.45,8.45,0,0,1,8.45,8.45h5.49a13.94,13.94,0,1,0-27.87,0h5.49A8.45,8.45,0,0,1,407.71,385.06Z" transform="translate(-284.39 -256.31)"/><path class="cls-33" d="M407.71,385.06a8.45,8.45,0,0,0-8.45,8.45h16.9A8.45,8.45,0,0,0,407.71,385.06Z" transform="translate(-284.39 -256.31)"/><line class="cls-34" x1="144.03" y1="137.2" x2="137.26" y2="137.2"/><line class="cls-35" x1="109.39" y1="137.2" x2="102.62" y2="137.2"/><line class="cls-36" x1="114.87" y1="137.2" x2="109.39" y2="137.2"/><line class="cls-37" x1="137.26" y1="137.2" x2="131.77" y2="137.2"/><line class="cls-38" x1="131.77" y1="137.2" x2="114.87" y2="137.2"/><path class="cls-39" d="M429.56,375.65a34.66,34.66,0,0,1,42.18,25l9.29-2.38a44.25,44.25,0,1,0-85.72,22l9.29-2.38A34.66,34.66,0,0,1,429.56,375.65Z" transform="translate(-284.39 -256.31)"/><path class="cls-40" d="M429.56,375.65a34.66,34.66,0,0,0-25,42.18l11-2.81a23.33,23.33,0,1,1,45.2-11.58l11-2.81A34.66,34.66,0,0,0,429.56,375.65Z" transform="translate(-284.39 -256.31)"/><path class="cls-41" d="M434.65,395.52a14.14,14.14,0,0,1,17.21,10.19l8.9-2.28A23.33,23.33,0,1,0,415.56,415l8.9-2.28A14.14,14.14,0,0,1,434.65,395.52Z" transform="translate(-284.39 -256.31)"/><path class="cls-42" d="M434.65,395.52a14.14,14.14,0,0,0-10.19,17.21l27.4-7A14.14,14.14,0,0,0,434.65,395.52Z" transform="translate(-284.39 -256.31)"/><line class="cls-43" x1="187.35" y1="144.31" x2="176.37" y2="147.12"/><line class="cls-44" x1="131.17" y1="158.7" x2="120.2" y2="161.51"/><line class="cls-45" x1="140.07" y1="156.42" x2="131.17" y2="158.7"/><line class="cls-46" x1="176.37" y1="147.12" x2="167.47" y2="149.4"/><line class="cls-47" x1="167.47" y1="149.4" x2="140.07" y2="156.42"/><path class="cls-48" d="M382.4,385.2a18.33,18.33,0,0,1,12.18,22.88l4.85,1.48a23.4,23.4,0,1,0-44.76-13.65l4.85,1.48A18.33,18.33,0,0,1,382.4,385.2Z" transform="translate(-284.39 -256.31)"/><path class="cls-49" d="M382.4,385.2a18.33,18.33,0,0,0-22.88,12.18l5.73,1.75a12.34,12.34,0,1,1,23.6,7.2l5.73,1.75A18.33,18.33,0,0,0,382.4,385.2Z" transform="translate(-284.39 -256.31)"/><path class="cls-50" d="M379.23,395.58a7.48,7.48,0,0,1,5,9.34l4.65,1.42a12.34,12.34,0,1,0-23.6-7.2l4.65,1.42A7.48,7.48,0,0,1,379.23,395.58Z" transform="translate(-284.39 -256.31)"/><path class="cls-51" d="M379.23,395.58a7.48,7.48,0,0,0-9.34,5l14.31,4.36A7.48,7.48,0,0,0,379.23,395.58Z" transform="translate(-284.39 -256.31)"/><line class="cls-52" x1="110.2" y1="151.77" x2="104.47" y2="150.03"/><line class="cls-53" x1="80.87" y1="142.83" x2="75.14" y2="141.08"/><line class="cls-54" x1="85.51" y1="144.25" x2="80.87" y2="142.83"/><line class="cls-55" x1="104.47" y1="150.03" x2="99.82" y2="148.61"/><line class="cls-56" x1="99.82" y1="148.61" x2="85.51" y2="144.25"/></g><ellipse class="cls-57" cx="136.63" cy="119.23" rx="58.27" ry="33.4"/><path class="cls-58" d="M479.29,375.54h0c0-.33,0-.65,0-1,0-.1,0-.2,0-.3s0-.45-.06-.68l0-.33q0-.34-.09-.67l0-.3q-.07-.42-.16-.84l0-.11q-.11-.49-.24-1l-.05-.18q-.11-.39-.23-.78l-.08-.25q-.12-.36-.26-.73l-.08-.22q-.17-.43-.35-.85l0-.06q-.42-1-.95-1.89l-.07-.12q-.23-.41-.48-.82l-.07-.12q-.28-.44-.57-.88h0a29.29,29.29,0,0,0-2.09-2.72l0-.05q-.37-.43-.77-.86h0C468,354,458.89,349.3,449,346.23q-2.87-.9-5.92-1.61l-.64-.15h0a84.41,84.41,0,0,0-13.73-2h0q-3.75-.28-7.63-.28c-21.39,0-40.09,6.61-50.23,16.46l0,0a32.4,32.4,0,0,0-3.12,3.5l-.07.09c-.3.39-.59.79-.86,1.19h0q-.41.6-.78,1.22l0,.05q-.35.59-.67,1.2l-.08.16c-.21.4-.4.81-.59,1.21l0,0c-.18.4-.34.8-.49,1.2l-.06.15q-.22.6-.4,1.2l-.06.22c-.12.41-.23.82-.32,1.24v.05c-.09.4-.16.81-.22,1.21l0,.22q-.09.61-.13,1.22c0,.08,0,.16,0,.24,0,.42,0,.85,0,1.27h0a21.76,21.76,0,0,0,4.58,13l.57.74a33.89,33.89,0,0,0,4,4.26l.77.67q.79.67,1.62,1.31t1.73,1.26c10.69,7.42,26.86,12.15,45,12.15s34.28-4.73,45-12.15q.89-.62,1.73-1.26t1.62-1.31l.77-.67a33.89,33.89,0,0,0,4-4.26l.57-.74a21.76,21.76,0,0,0,4.58-13Z" transform="translate(-284.39 -256.31)"/></g><ellipse id="shadow" class="cls-59" cx="136.59" cy="119.23" rx="58.31" ry="33.4"/></g><path class="cls-60" d="M350.09,478.07q0,7.95,3.26,12.16a3.16,3.16,0,0,1,.48,1.35q0,2.54-5.64,4.21a27.12,27.12,0,0,1-7.79,1.27q-6.67,0-9.3-3.58-2.31-3.1-2.3-10.09,0-6.2,2.3-19.47a82.78,82.78,0,0,0,1.43-10.49,11.31,11.31,0,0,0-1.79-6.32,5.83,5.83,0,0,0-4.73-2.9q-5-.32-9.22,4.05,4.85-7,10.09-7,3,0,5.48,3.26a14.14,14.14,0,0,1,2.62,6v-.16a15.63,15.63,0,0,0-1.67-7.23q-2.07-4.37-5.64-4.53-10.57-.32-16.61,18.43a89.39,89.39,0,0,0-4.53,27.65,87.92,87.92,0,0,0,.48,8.9q2.7.88,2.7,1.67,0,1.27-4.53,1.27-7.15,0-10.73-2.94-5.24-4.37-6.52-32-1.59-31.7-3.42-36.95a1.2,1.2,0,0,1-.16-.48q0-3.1,10.57-3.1,16.76,0,16.76,11,0,1.83-2.15,17.24,9-22.41,20.5-24.87a29.46,29.46,0,0,1,6.67-.79q16.45,0,16.45,20.18a139.21,139.21,0,0,1-1.55,17A139.36,139.36,0,0,0,350.09,478.07Z" transform="translate(-284.39 -256.31)"/><path class="cls-60" d="M397,446.29q0-10.57,1.83-13,4.05-5.08,17.56-5.09,12.23,0,12.24,3.1a.53.53,0,0,1-.24.48q-1.91,4.37-3,28.44-.71,15.49-1.19,30.83-.64,14.3-.79,15.1-.64,10.25-2.14,14.14a21.26,21.26,0,0,1-6.83,9.3q6.51-6.83,6.52-25.27,0-3-.16-6-.79,1.43-2.22,15.42-1.35,12.08-6.67,16.61-3.81,3.26-10.49,3.26-7.95,0-7.95-2.07,0-.56,2.62-1,5.88-1.27,5.88-19.71,0-3.89-2.94-35.12-10.57,23.92-24.55,23.92-9.46,0-14.7-10.25a40.85,40.85,0,0,1-4.05-18.51A57.74,57.74,0,0,1,357,459q2.62-11.84,5.56-18a38.31,38.31,0,0,1,11.68-14.46q2.62-2,9.93-2,11.92,0,18.43,2.46.79.48.79.64c0,.11-.11.21-.32.32a17.8,17.8,0,0,0-8.26,4.69q0,.16-5.88,7.87a44.92,44.92,0,0,0-9.46,27.81q0,11,6,11,6.51,0,11-16.29,1-3.42,1-3.73,0-2.07-.24-6.48T397,446.29Z" transform="translate(-284.39 -256.31)"/><path class="cls-60" d="M469.89,420.94q14.54,0,22.17,12.55,6.2,10.41,6.2,26,0,14.86-7.87,25.58-8.74,11.84-23.28,11.84a38,38,0,0,1-13.27-2.54,30.86,30.86,0,0,1-16.92-15.18q-5.24-9.61-5.24-22.49a56.1,56.1,0,0,1,2-14.78q2.54-9.14,7.15-12.55a18.77,18.77,0,0,1,8.1-2.7Q459.8,420.94,469.89,420.94Zm13.19,29.48h.48q0-6-5.36-13.47T467,429.53a13.67,13.67,0,0,0-5,1,3.85,3.85,0,0,1-.64,2.38q-4.93,8.66-4.93,23,0,22.17,6.83,30.91a19.15,19.15,0,0,0,3.26.32q4.61,0,6.67-3.42,1.35-2.07,2.46-7.63a84.24,84.24,0,0,0,2-17.56,49.21,49.21,0,0,0-2.46-15.65q-3.42-10.09-9.61-10.73,6.36,0,11.52,6.2A30.19,30.19,0,0,1,483.08,450.42Z" transform="translate(-284.39 -256.31)"/><path class="cls-60" d="M564.88,478.07q0,7.95,3.26,12.16a3.16,3.16,0,0,1,.48,1.35q0,2.54-5.64,4.21a27.12,27.12,0,0,1-7.79,1.27q-6.67,0-9.3-3.58-2.31-3.1-2.3-10.09,0-6.2,2.3-19.47a82.78,82.78,0,0,0,1.43-10.49,11.31,11.31,0,0,0-1.79-6.32,5.83,5.83,0,0,0-4.73-2.9q-5-.32-9.22,4.05,4.85-7,10.09-7,3,0,5.48,3.26a14.14,14.14,0,0,1,2.62,6v-.16a15.63,15.63,0,0,0-1.67-7.23q-2.07-4.37-5.64-4.53-10.57-.32-16.61,18.43a89.39,89.39,0,0,0-4.53,27.65,87.92,87.92,0,0,0,.48,8.9q2.7.88,2.7,1.67,0,1.27-4.53,1.27-7.15,0-10.73-2.94-5.24-4.37-6.52-32-1.59-31.7-3.42-36.95a1.2,1.2,0,0,1-.16-.48q0-3.1,10.57-3.1,16.76,0,16.76,11,0,1.83-2.15,17.24,9-22.41,20.5-24.87a29.46,29.46,0,0,1,6.67-.79q16.45,0,16.45,20.18a139.21,139.21,0,0,1-1.55,17A139.36,139.36,0,0,0,564.88,478.07Z" transform="translate(-284.39 -256.31)"/></g></g></g></svg>