<svg xmlns="http://www.w3.org/2000/svg" viewBox="0 0 48 48"><defs><style>.cls-1{fill:#00abe3;}.cls-2{fill:#fff;}</style></defs><title>Asset 5</title><g id="Layer_2" data-name="Layer 2"><g id="Layer_1-2" data-name="Layer 1"><circle class="cls-1" cx="24" cy="24" r="24"/><path class="cls-2" d="M38.17,12.44a12.44,12.44,0,0,1-3.91,1.47A6.19,6.19,0,0,0,29.77,12a6.06,6.06,0,0,0-6,7.44,17.57,17.57,0,0,1-12.69-6.33,6,6,0,0,0-.83,3,6,6,0,0,0,2.74,5,6.21,6.21,0,0,1-2.79-.76v.08a6.09,6.09,0,0,0,4.94,5.94,6.28,6.28,0,0,1-2.78.1,6.15,6.15,0,0,0,5.75,4.21,12.48,12.48,0,0,1-7.65,2.59A12.78,12.78,0,0,1,9,33.28,17.64,17.64,0,0,0,18.44,36,17.25,17.25,0,0,0,35.95,18.76c0-.26,0-.52,0-.78A12.38,12.38,0,0,0,39,14.84a12.41,12.41,0,0,1-3.54,1A6.09,6.09,0,0,0,38.17,12.44Z"/><circle class="cls-1" cx="24" cy="24" r="24"/><path class="cls-2" d="M38.17,12.44a12.44,12.44,0,0,1-3.91,1.47A6.19,6.19,0,0,0,29.77,12a6.06,6.06,0,0,0-6,7.44,17.57,17.57,0,0,1-12.69-6.33,6,6,0,0,0-.83,3,6,6,0,0,0,2.74,5,6.21,6.21,0,0,1-2.79-.76v.08a6.09,6.09,0,0,0,4.94,5.94,6.28,6.28,0,0,1-2.78.1,6.15,6.15,0,0,0,5.75,4.21,12.48,12.48,0,0,1-7.65,2.59A12.78,12.78,0,0,1,9,33.28,17.64,17.64,0,0,0,18.44,36,17.25,17.25,0,0,0,35.95,18.76c0-.26,0-.52,0-.78A12.38,12.38,0,0,0,39,14.84a12.41,12.41,0,0,1-3.54,1A6.09,6.09,0,0,0,38.17,12.44Z"/><circle class="cls-1" cx="24" cy="24" r="24"/><path class="cls-2" d="M38.17,12.44a12.44,12.44,0,0,1-3.91,1.47A6.19,6.19,0,0,0,29.77,12a6.06,6.06,0,0,0-6,7.44,17.57,17.57,0,0,1-12.69-6.33,6,6,0,0,0-.83,3,6,6,0,0,0,2.74,5,6.21,6.21,0,0,1-2.79-.76v.08a6.09,6.09,0,0,0,4.94,5.94,6.28,6.28,0,0,1-2.78.1,6.15,6.15,0,0,0,5.75,4.21,12.48,12.48,0,0,1-7.65,2.59A12.78,12.78,0,0,1,9,33.28,17.64,17.64,0,0,0,18.44,36,17.25,17.25,0,0,0,35.95,18.76c0-.26,0-.52,0-.78A12.38,12.38,0,0,0,39,14.84a12.41,12.41,0,0,1-3.54,1A6.09,6.09,0,0,0,38.17,12.44Z"/></g></g></svg>