<svg xmlns="http://www.w3.org/2000/svg" viewBox="0 0 48 48"><defs><style>.cls-1{fill:#ff312e;}.cls-2{fill:#fff;}</style></defs><title>Asset 1</title><g id="Layer_2" data-name="Layer 2"><g id="Layer_1-2" data-name="Layer 1"><circle class="cls-1" cx="24" cy="24" r="24"/><g id="Lozenge"><path class="cls-2" d="M38.7,17.74a7,7,0,0,0-1.19-3.11,4.19,4.19,0,0,0-3-1.32C30.3,13,24,13,24,13h0s-6.3,0-10.5.32a4.2,4.2,0,0,0-3,1.32A7,7,0,0,0,9.3,17.74,49.17,49.17,0,0,0,9,22.81v2.37a49.19,49.19,0,0,0,.3,5.06,7,7,0,0,0,1.19,3.1,5,5,0,0,0,3.31,1.34C16.2,34.92,24,35,24,35s6.3,0,10.5-.33a4.2,4.2,0,0,0,3-1.33,7,7,0,0,0,1.19-3.1,49.18,49.18,0,0,0,.3-5.06V22.81A49.16,49.16,0,0,0,38.7,17.74ZM20.9,28.06V19.27L29,23.68Z"/></g><circle class="cls-1" cx="24" cy="24" r="24"/><g id="Lozenge-2" data-name="Lozenge"><path class="cls-2" d="M38.7,17.74a7,7,0,0,0-1.19-3.11,4.19,4.19,0,0,0-3-1.32C30.3,13,24,13,24,13h0s-6.3,0-10.5.32a4.2,4.2,0,0,0-3,1.32A7,7,0,0,0,9.3,17.74,49.17,49.17,0,0,0,9,22.81v2.37a49.19,49.19,0,0,0,.3,5.06,7,7,0,0,0,1.19,3.1,5,5,0,0,0,3.31,1.34C16.2,34.92,24,35,24,35s6.3,0,10.5-.33a4.2,4.2,0,0,0,3-1.33,7,7,0,0,0,1.19-3.1,49.18,49.18,0,0,0,.3-5.06V22.81A49.16,49.16,0,0,0,38.7,17.74ZM20.9,28.06V19.27L29,23.68Z"/></g><circle class="cls-1" cx="24" cy="24" r="24"/><g id="Lozenge-3" data-name="Lozenge"><path class="cls-2" d="M38.7,17.74a7,7,0,0,0-1.19-3.11,4.19,4.19,0,0,0-3-1.32C30.3,13,24,13,24,13h0s-6.3,0-10.5.32a4.2,4.2,0,0,0-3,1.32A7,7,0,0,0,9.3,17.74,49.17,49.17,0,0,0,9,22.81v2.37a49.19,49.19,0,0,0,.3,5.06,7,7,0,0,0,1.19,3.1,5,5,0,0,0,3.31,1.34C16.2,34.92,24,35,24,35s6.3,0,10.5-.33a4.2,4.2,0,0,0,3-1.33,7,7,0,0,0,1.19-3.1,49.18,49.18,0,0,0,.3-5.06V22.81A49.16,49.16,0,0,0,38.7,17.74ZM20.9,28.06V19.27L29,23.68Z"/></g></g></g></svg>